<?xml version="1.0" standalone="no"?><!DOCTYPE svg PUBLIC "-//W3C//DTD SVG 1.1//EN" "http://www.w3.org/Graphics/SVG/1.1/DTD/svg11.dtd"><svg t="1620213036828" class="icon" viewBox="0 0 1024 1024" version="1.1" xmlns="http://www.w3.org/2000/svg" p-id="1646" xmlns:xlink="http://www.w3.org/1999/xlink" width="200" height="200"><defs><style type="text/css"></style></defs><path d="M509.214 510.704m-448.176 0a448.176 448.176 0 1 0 896.352 0 448.176 448.176 0 1 0-896.352 0Z" fill="#4F5D73" p-id="1647"></path><path d="M510.561 618.299c-21.787 21.787-85.251 175.636-85.251 175.636-9.308 16.92 4.626 29.202 36.319 13.114l113.885-62.117c61.355-34.101 73.22-43.012 72.413-112.44l-11.416-81.976c-3.911-28.082-24.936-33.232-46.724-11.444l-79.226 79.227zM440.194 547.932c-21.787 21.787-175.636 85.251-175.636 85.251-16.92 9.308-29.202-4.626-13.114-36.319l62.117-113.885c34.101-61.355 43.012-73.22 112.44-72.413l81.976 11.416c28.082 3.911 33.232 24.936 11.444 46.724l-79.227 79.226z" fill="#231F20" p-id="1648"></path><path d="M510.561 590.288c-21.787 21.787-85.251 175.636-85.251 175.636-9.308 16.92 4.626 29.202 36.319 13.114l113.885-62.117c61.355-34.101 73.22-43.012 72.413-112.44l-11.416-81.976c-3.911-28.082-24.936-33.232-46.724-11.444l-79.226 79.227zM440.194 519.921c-21.787 21.787-175.636 85.251-175.636 85.251-16.92 9.308-29.202-4.626-13.114-36.319l62.117-113.885c34.101-61.355 43.012-73.22 112.44-72.413l81.976 11.416c28.082 3.911 33.232 24.936 11.444 46.724l-79.227 79.226z" fill="#C75C5C" p-id="1649"></path><path d="M358.606 616.371c71.067-71.067 130.772-49.378 130.772-49.378S511.067 626.698 440 697.765 253.852 820.447 244.888 811.483c-8.69-8.69 42.651-124.044 113.718-195.112z" fill="#231F20" p-id="1650"></path><path d="M358.606 588.36c71.067-71.067 130.772-49.378 130.772-49.378S511.067 598.687 440 669.754 253.852 792.436 244.888 783.472c-8.69-8.691 42.651-124.044 113.718-195.112z" fill="#E0995E" p-id="1651"></path><path d="M418.026 528.94c71.067-71.067 130.772-49.378 130.772-49.378s21.689 59.705-49.378 130.772-186.147 122.682-195.111 113.718c-8.691-8.691 42.65-124.044 113.717-195.112z" fill="#F5CF87" p-id="1652"></path><path d="M672.155 581.825c-109.39 109.39-277.066 79.456-277.066 79.456s-29.934-167.676 79.456-277.066 275.11-121.026 296.872-99.263c21.1 21.1 10.128 187.484-99.262 296.873z" fill="#231F20" p-id="1653"></path><path d="M672.155 553.814c-109.39 109.39-277.066 79.456-277.066 79.456s-29.934-167.676 79.456-277.066 275.11-121.026 296.872-99.263c21.1 21.1 10.128 187.483-99.262 296.873z" fill="#E0E0D1" p-id="1654"></path><path d="M355.476 720.702c-10.939 10.939-18.771 20.842-29.71 9.903-10.939-10.939-1.036-18.771 9.903-29.71l138.647-178.261c10.939-10.939 58.385-20.842 69.324-9.903 10.939 10.939 1.036 58.385-9.903 69.324L355.476 720.702z" fill="#231F20" p-id="1655"></path><path d="M355.476 692.691c-10.939 10.939-18.771 20.842-29.71 9.903-10.939-10.939-1.036-18.771 9.903-29.71l138.647-178.261c10.939-10.939 58.385-20.842 69.324-9.903 10.939 10.939 1.036 58.385-9.903 69.324L355.476 692.691z" fill="#C75C5C" p-id="1656"></path><path d="M615.718 442.775m-56.022 0a56.022 56.022 0 1 0 112.044 0 56.022 56.022 0 1 0-112.044 0Z" fill="#231F20" p-id="1657"></path><path d="M694.945 363.548m-28.011 0a28.011 28.011 0 1 0 56.022 0 28.011 28.011 0 1 0-56.022 0Z" fill="#231F20" p-id="1658"></path><path d="M615.718 414.764m-56.022 0a56.022 56.022 0 1 0 112.044 0 56.022 56.022 0 1 0-112.044 0Z" fill="#4F5D73" p-id="1659"></path><path d="M694.945 335.537m-28.011 0a28.011 28.011 0 1 0 56.022 0 28.011 28.011 0 1 0-56.022 0Z" fill="#4F5D73" p-id="1660"></path></svg>