<svg t="1620115899253" class="icon" viewBox="0 0 1032 1024" version="1.1" xmlns="http://www.w3.org/2000/svg" p-id="9064" data-spm-anchor-id="a313x.7781069.0.i0" width="200" height="200"><path d="M1003.000047 325.250704c-10.799143 54.95422-88.022602 165.182161-134.190537 211.190345a748.208094 748.208094 0 0 1-133.551535 104.157417 615.742864 615.742864 0 0 1 22.620691 67.734271 132.593031 132.593031 0 0 1-11.981298 72.846291c-44.95383 126.842008-225.344252 242.820972-225.344252 242.820972a810.734494 810.734494 0 0 1-35.14514-262.949552 2212.482453 2212.482453 0 0 1-136.363146 45.04968L211.435629 668.395077c8.882136-30.352621 19.010326-62.622251 30.863824-96.808887a749.326348 749.326348 0 0 1-223.650895-13.419054s87.41555-190.422762 207.675831-250.489002a109.748689 109.748689 0 0 1 51.120204-18.850576 255.601023 255.601023 0 0 1 86.265346 14.697059 787.1553 787.1553 0 0 1 117.193068-154.95812c61.951298-61.983248 53.516464-54.95422 103.614265-83.070332 145.756483-81.472826 447.30179-63.900256 447.30179-63.900256a1976.72246 1976.72246 0 0 1-28.819015 323.654795zM554.516102 934.539642s105.978574-89.140857 135.468542-175.725703a148.823696 148.823696 0 0 0 4.88837-17.57257 132.976432 132.976432 0 0 0-8.786285-71.568287 1393.760427 1393.760427 0 0 1-139.526209 67.095269 422.668241 422.668241 0 0 0 7.923632 197.771291zM266.6774 357.520333a81.089424 81.089424 0 0 0-31.375025 12.46055c-81.376976 41.854667-138.919156 152.082609-138.919156 152.082609a623.027493 623.027493 0 0 0 169.335677-14.058057 1483.252735 1483.252735 0 0 1 65.689463-146.331585 395.702333 395.702333 0 0 0-64.762909-4.153517z m690.570064-297.45569s-207.48413-13.738555-308.861886 37.381649a665.169712 665.169712 0 0 0-114.381458 88.501855c-128.695115 128.439514-208.570435 339.94936-247.773241 467.43037l77.862461 77.958312c127.38516-39.298657 338.671355-119.173977 467.494271-247.932992a386.596547 386.596547 0 0 0 35.943894-40.896164c103.262813-138.344054 89.684009-382.44303 89.684008-382.44303z m-276.943709 356.882928a95.850384 95.850384 0 1 1 95.850384-95.850384 95.850384 95.850384 0 0 1-95.850384 95.850384z m-495.226981 348.256393c0.670953-2.875512 1.597506-6.390026 2.332359-9.265537l84.731739 84.667839a457.877282 457.877282 0 0 1-39.138906 55.593223c-39.809859 44.730179-159.750639 63.900256-159.75064 63.900255a280.298472 280.298472 0 0 1 63.900256-159.750639 326.722007 326.722007 0 0 1 48.084942-35.145141z" p-id="9065" fill="#bfbfbf"></path></svg>